#!OML:ASF H:\MichaelJackson\Top Level 1\Subject 1\Session 1\male.ASF
:FULLY-SPECIFIED
:DEGREES
384
root 10.7361 17.2696 14.3371 -365.723 82.0629 -20.3203
lowerback 7.38715 -3.69343 0.0261242
upperback 3.37254 -4.74131 3.59832
thorax -0.337394 -2.35152 4.04846
lowerneck -2.30084 -17.0502 -9.2565
upperneck 12.3248 -24.1582 13.578
head 6.94203 -11.44 3.57352
rclavicle -1.08338e-014 1.10325e-014
rhumerus -55.5448 71.7593 -90.0104
rradius 75.0362
rwrist 24.8996
rhand -20.8451 -12.5721
rfingers 7.12502
rthumb 5.52393 -42.4801
lclavicle -1.08338e-014 1.10325e-014
lhumerus -26.2113 -17.3394 89.4895
lradius 59.744
lwrist 21.9188
lhand -20.8007 10.0331
lfingers 7.12502
lthumb 5.56674 39.94
rfemur -25.0387 14.8005 17.5643
rtibia 39.7915
rfoot -10.3179 17.2868
rtoes 9.08514
lfemur -44.6374 0.0693403 -9.66202
ltibia 36.4293
lfoot 4.5906 5.48769
ltoes 6.02343
385
root 10.5752 17.2666 14.3958 -365.761 82.4564 -20.4424
lowerback 7.56727 -3.64257 0.0890587
upperback 3.4922 -4.66686 3.43101
thorax -0.337959 -2.31129 3.84299
lowerneck -2.23026 -17.0927 -9.19822
upperneck 11.9657 -24.2308 13.8968
head 6.85912 -11.476 3.66493
rclavicle 5.30258e-014 -4.80065e-014
rhumerus -54.3703 73.8154 -88.6043
rradius 76.0123
rwrist 24.9812
rhand -20.6411 -12.5451
rfingers 7.12502
rthumb 5.72088 -42.4479
lclavicle 5.30258e-014 -4.80065e-014
lhumerus -26.1752 -17.4018 89.4052
lradius 59.9009
lwrist 22.216
lhand -20.5137 9.95614
lfingers 7.12502
lthumb 5.84389 39.8556
rfemur -25.5114 14.4398 17.7304
rtibia 39.7317
rfoot -10.9126 16.5191
rtoes 8.24228
lfemur -45.2543 0.539964 -10.3056
ltibia 37.6438
lfoot 4.53098 5.14971
ltoes 6.13756
386
root 10.4167 17.2619 14.4551 -366.143 82.8642 -20.8917
lowerback 7.72726 -3.5882 0.189224
upperback 3.606 -4.58507 3.27046
thorax -0.335666 -2.26676 3.62191
lowerneck -2.14479 -17.1398 -9.16393
upperneck 11.6453 -24.3096 14.2017
head 6.78852 -11.5162 3.75425
rclavicle -4.22417e-014 2.31087e-014
rhumerus -52.7447 75.7818 -86.6859
rradius 76.9477
rwrist 25.1448
rhand -20.4884 -12.3886
rfingers 7.12502
rthumb 5.86832 -42.2874
lclavicle -4.22417e-014 2.31087e-014
lhumerus -26.073 -17.4449 89.3469
lradius 59.917
lwrist 22.4169
lhand -20.1995 9.89907
lfingers 7.12502
lthumb 6.14725 39.7899
rfemur -26.0079 13.9966 17.93
rtibia 39.7135
rfoot -11.3747 15.9369
rtoes 7.5966
lfemur -45.9049 1.07269 -10.9645
ltibia 38.9471
lfoot 4.50051 4.76348
ltoes 6.29075
387
root 10.2602 17.2556 14.5147 -366.923 83.2609 -21.7143
lowerback 7.8811 -3.53085 0.31905
upperback 3.71591 -4.4966 3.12237
thorax -0.334821 -2.21832 3.3963
lowerneck -2.05237 -17.1849 -9.15206
upperneck 11.37 -24.3836 14.4725
head 6.72924 -11.5555 3.83623
rclavicle 8.90058e-014 -5.64051e-015
rhumerus -50.4521 77.6953 -84.0494
rradius 77.8447
rwrist 25.3368
rhand -20.3485 -12.1086
rfingers 7.12502
rthumb 6.00337 -42.0035
lclavicle 8.90058e-014 -5.64051e-015
lhumerus -25.9114 -17.4068 89.3232
lradius 59.8042
lwrist 22.4744
lhand -19.8555 9.87781
lfingers 7.12502
lthumb 6.47932 39.7587
rfemur -26.527 13.4866 18.1717
rtibia 39.7453
rfoot -11.6986 15.557
rtoes 7.17947
lfemur -46.5578 1.63783 -11.5993
ltibia 40.328
lfoot 4.48306 4.32915
ltoes 6.45564
388
root 10.1055 17.2481 14.575 -368.097 83.6097 -22.8984
lowerback 8.04399 -3.4672 0.458495
upperback 3.82243 -4.39793 2.99143
thorax -0.341328 -2.16446 3.18284
lowerneck -1.95448 -17.2191 -9.18035
upperneck 11.1428 -24.4408 14.7104
head 6.68313 -11.5882 3.91478
rclavicle 0 1.54307e-014
rhumerus -47.0692 79.585 -80.2938
rradius 78.6895
rwrist 25.4943
rhand -20.1955 -11.7323
rfingers 7.12502
rthumb 6.1511 -41.623
lclavicle 0 1.54307e-014
lhumerus -25.725 -17.2382 89.3304
lradius 59.6029
lwrist 22.3617
lhand -19.4764 9.87506
lfingers 7.12502
lthumb 6.84532 39.7444
rfemur -27.0633 12.945 18.4607
rtibia 39.825
rfoot -11.8633 15.3873
rtoes 7.11791
lfemur -47.1807 2.2074 -12.1647
ltibia 41.7805
lfoot 4.45865 3.84443
ltoes 6.56489
389
root 9.95252 17.2398 14.6359 -369.695 83.8775 -24.462
lowerback 8.22917 -3.3918 0.605403
upperback 3.93031 -4.28157 2.8757
thorax -0.357804 -2.10142 2.98068
lowerneck -1.85544 -17.2393 -9.22629
upperneck 10.9547 -24.4755 14.9018
head 6.64261 -11.6117 3.98425
rclavicle 4.26766e-014 -1.55425e-014
rhumerus -41.7684 81.4367 -74.6167
rradius 79.4707
rwrist 25.6079
rhand -19.9333 -11.2811
rfingers 7.12502
rthumb 6.40419 -41.1642
lclavicle 4.26766e-014 -1.55425e-014
lhumerus -25.542 -16.919 89.3651
lradius 59.3487
lwrist 22.0733
lhand -19.0778 9.85646
lfingers 7.12502
lthumb 7.23005 39.7129
rfemur -27.5984 12.4027 18.8129
rtibia 39.9433
rfoot -11.872 15.412
rtoes 7.43189
lfemur -47.7403 2.75961 -12.6125
ltibia 43.302
lfoot 4.41842 3.31372
ltoes 6.575
390
root 9.80138 17.2312 14.6978 -371.565 84.0362 -26.25
lowerback 8.43728 -3.30086 0.733737
upperback 4.04152 -4.14442 2.77746
thorax -0.380395 -2.02814 2.80607
lowerneck -1.75632 -17.2403 -9.29274
upperneck 10.8027 -24.4795 15.0414
head 6.60532 -11.6222 4.04465
rclavicle 5.4877e-014 -3.0265e-014
rhumerus -32.9591 83.1917 -65.4385
rradius 80.1846
rwrist 25.6907
rhand -19.55 -10.778
rfingers 7.12502
rthumb 6.77421 -40.6496
lclavicle 5.4877e-014 -3.0265e-014
lhumerus -25.3962 -16.4391 89.4277
lradius 59.0814
lwrist 21.654
lhand -18.7374 9.81069
lfingers 7.12502
lthumb 7.55866 39.6556
rfemur -28.1112 11.8995 19.2266
rtibia 40.0831
rfoot -11.7404 15.5915
rtoes 8.12317
lfemur -48.2114 3.28083 -12.9159
ltibia 44.8935
lfoot 4.35102 2.74278
ltoes 6.3868
391
root 9.65216 17.2224 14.7609 -373.499 84.0941 -28.0554
lowerback 8.66319 -3.18893 0.834688
upperback 4.15652 -3.98054 2.68422
thorax -0.406362 -1.94177 2.64986
lowerneck -1.66264 -17.233 -9.35187
upperneck 10.686 -24.4692 15.1297
head 6.57047 -11.6264 4.09015
rclavicle 2.31087e-014 -7.90169e-015
rhumerus -17.9694 84.6336 -50.1044
rradius 80.8269
rwrist 25.772
rhand -19.0063 -10.2351
rfingers 7.12502
rthumb 7.29907 -40.0892
lclavicle 2.31087e-014 -7.90169e-015
lhumerus -25.3127 -15.8577 89.5122
lradius 58.8375
lwrist 21.165
lhand -18.5388 9.75352
lfingers 7.12502
lthumb 7.75033 39.5915
rfemur -28.5844 11.4519 19.6865
rtibia 40.2265
rfoot -11.4947 15.8724
rtoes 9.17911
lfemur -48.5873 3.74599 -13.0737
ltibia 46.5538
lfoot 4.26508 2.15951
ltoes 6.0472
392
root 9.5052 17.2132 14.8251 -375.343 84.0691 -29.7356
lowerback 8.89374 -3.06244 0.89854
upperback 4.26954 -3.80003 2.59352
thorax -0.4336 -1.84766 2.5149
lowerneck -1.57527 -17.2177 -9.4017
upperneck 10.6075 -24.4458 15.1693
head 6.53938 -11.6243 4.12091
rclavicle 6.07287e-014 -1.67973e-014
rhumerus 5.22219 85.4031 -26.6018
rradius 81.4019
rwrist 25.8894
rhand -18.2916 -9.6302
rfingers 7.12502
rthumb 7.98887 -39.4592
lclavicle 6.07287e-014 -1.67973e-014
lhumerus -25.3142 -15.2031 89.6168
lradius 58.6377
lwrist 20.6688
lhand -18.5492 9.68477
lfingers 7.12502
lthumb 7.74028 39.5231
rfemur -29.0086 11.0758 20.1778
rtibia 40.3554
rfoot -11.194 16.1813
rtoes 10.3981
lfemur -48.876 4.14454 -13.0966
ltibia 48.2792
lfoot 4.16883 1.58439
ltoes 5.57852
393
root 9.36065 17.2035 14.8907 -376.945 83.9936 -31.1495
lowerback 9.11145 -2.92523 0.921873
upperback 4.37696 -3.60947 2.49415
thorax -0.456836 -1.74925 2.39111
lowerneck -1.50367 -17.202 -9.43758
upperneck 10.5756 -24.4227 15.1731
head 6.5192 -11.6204 4.13704
rclavicle 1.78906e-015 -1.46107e-014
rhumerus 30.6231 85.1568 -0.935309
rradius 81.9076
rwrist 26.0823
rhand -17.3972 -8.97134
rfingers 7.12502
rthumb 8.85203 -38.7657
lclavicle 1.78906e-015 -1.46107e-014
lhumerus -25.4065 -14.5381 89.7312
lradius 58.4944
lwrist 20.2502
lhand -18.8238 9.61887
lfingers 7.12502
lthumb 7.47523 39.4668
rfemur -29.3836 10.7888 20.6673
rtibia 40.4594
rfoot -10.8707 16.4849
rtoes 11.7942
lfemur -49.0935 4.47489 -13.0235
ltibia 50.0597
lfoot 4.08323 1.04933
ltoes 5.01565
394
root 9.21891 17.1929 14.9575 -378.313 83.9126 -32.3241
lowerback 9.292 -2.78649 0.917188
upperback 4.47517 -3.42133 2.3769
thorax -0.467685 -1.65267 2.26204
lowerneck -1.44326 -17.192 -9.44995
upperneck 10.5804 -24.4095 15.1539
head 6.5078 -11.6191 4.14043
rclavicle 2.92213e-014 -1.64991e-014
rhumerus 48.6294 84.0934 17.2852
rradius 82.3548
rwrist 26.3477
rhand -16.3616 -8.26338
rfingers 7.12502
rthumb 9.85133 -38.0129
lclavicle 2.92213e-014 -1.64991e-014
lhumerus -25.5823 -13.918 89.8437
lradius 58.4057
lwrist 19.9528
lhand -19.3446 9.56228
lfingers 7.12502
lthumb 6.97251 39.4274
rfemur -29.7168 10.5872 21.1314
rtibia 40.5316
rfoot -10.6031 16.713
rtoes 13.0473
lfemur -49.2654 4.73547 -12.8981
ltibia 51.8828
lfoot 4.03361 0.593264
ltoes 4.40312
395
root 9.08011 17.1808 15.0254 -379.46 83.8588 -33.2835
lowerback 9.42174 -2.65521 0.890113
upperback 4.56001 -3.24775 2.23557
thorax -0.463464 -1.56397 2.11904
lowerneck -1.39674 -17.1892 -9.44027
upperneck 10.618 -24.4093 15.1262
head 6.50699 -11.6213 4.13475
rclavicle -1.2921e-015 2.72335e-014
rhumerus 58.839 82.6629 27.6535
rradius 82.7537
rwrist 26.6722
rhand -15.1974 -7.55875
rfingers 7.12502
rthumb 10.9743 -37.2519
lclavicle -1.2921e-015 2.72335e-014
lhumerus -25.824 -13.363 89.9457
lradius 58.3501
lwrist 19.7825
lhand -20.0348 9.50008
lfingers 7.12502
lthumb 6.30617 39.3862
rfemur -30.0199 10.4824 21.543
rtibia 40.5734
rfoot -10.4173 16.8422
rtoes 14.1194
lfemur -49.41 4.9463 -12.7696
ltibia 53.7299
lfoot 4.04806 0.250739
ltoes 3.81836
